<svg width="1015" height="508" viewBox="0 0 1015 508" fill="none" xmlns="http://www.w3.org/2000/svg">
<g opacity="0.1">
<path d="M441.734 55.2675C445.154 55.402 447.18 55.9007 444.03 55.1329C443.143 54.9192 442.415 54.9904 441.734 55.2675Z" fill="#9DD0FF"/>
<path d="M584.209 327.966V328.298C579.721 334.987 576.048 343.686 576.048 347.628C576.048 351.546 576.752 356.858 577.639 359.43C578.502 361.987 583.243 360.53 588.135 356.193C593.058 351.871 598.678 347.367 600.641 346.18C602.612 345 604.211 340.148 604.211 335.438V332.581C604.211 329.723 599.217 322.583 597.8 319.718C596.351 316.86 592.092 311.145 591.72 306.855L591.364 302.565C588.618 296.668 583.48 291.823 579.982 291.823H579.23C578.478 291.823 577.773 299.707 576.341 301.844L574.916 304.005C577.267 311.09 581.47 321.697 584.209 327.617V327.965L584.209 327.966Z" fill="#9DD0FF"/>
<path d="M555.596 344.785L559.166 344.065C562.712 342.094 566.891 335.825 568.474 330.126C570.041 324.403 571.007 316.519 570.627 312.593L565.609 315.458C560.614 318.316 555.596 319.733 555.596 324.031C555.596 328.321 552.026 345.498 555.596 344.785V344.785Z" fill="#9DD0FF"/>
<path d="M507.307 0.770439C227.851 0.770439 0.492188 228.129 0.492188 507.585C0.492188 787.042 227.851 1014.4 507.307 1014.4C786.764 1014.4 1014.12 787.042 1014.12 507.585C1014.12 228.129 786.764 0.770439 507.307 0.770439V0.770439ZM776.206 105.445C791.159 115.481 805.518 126.326 819.242 137.921C817.366 141.317 816.844 143.945 818.633 145.235C822.551 148.101 814.342 163.029 808.422 172.662L794.49 160.971C794.49 160.971 781.612 126.664 777.314 122.35C774.607 119.659 775.311 111.277 776.205 105.443L776.206 105.445ZM670.043 444.172L678.797 432.093H690.053L712.937 439.866L711.512 422.697H721.525L741.543 440.444H777.305C777.305 440.444 773.015 454.169 770.149 459.449C767.292 464.768 748.698 469.897 748.698 469.897H722.941L710.078 468.465L694.35 478.462L678.796 471.322C678.796 471.322 660.029 455.594 658.588 451.288C657.163 447.014 635.712 444.133 631.422 442.7C627.132 441.267 619.977 438.41 602.8 442.7C602.8 442.7 595.66 448.423 582.782 451.288C569.919 454.169 595.66 434.111 602.8 432.069C609.964 430.027 612.821 416.959 617.111 406.946C621.401 396.933 639.987 406.946 639.987 406.946H651.44C651.44 406.946 664.303 415.519 668.609 422.674C672.884 429.83 665.752 426.965 662.886 432.054C660.029 437.199 670.042 444.173 670.042 444.173L670.043 444.172ZM732.98 392.674C732.98 392.674 742.993 388.384 747.275 383.334C751.55 378.268 760.138 383.334 760.138 383.334L767.998 364.075C767.998 364.075 775.866 378.371 777.307 382.677C778.731 386.967 794.483 394.123 794.483 394.123L785.895 402.616L763.011 402.529C763.011 402.529 752.998 402.695 741.544 402.529L732.98 392.674ZM784.462 494.221C784.462 494.221 791.617 504.242 794.483 513.583C797.324 522.939 814.501 538.572 817.358 552.392C820.216 566.212 817.358 577.168 817.358 577.168C817.358 577.168 804.48 561.448 800.19 554.293C795.899 547.137 783.013 534.274 777.306 529.984C771.583 525.71 770.15 494.223 770.15 494.223H784.461L784.462 494.221ZM453.779 231.3L454.056 231.063L456.407 229.305C455.607 229.939 454.887 230.509 454.293 230.952C455.298 230.176 455.773 229.773 454.04 231.071C453.763 231.308 453.407 231.617 453.058 231.91C453.248 231.767 453.43 231.625 453.62 231.466C453.312 231.72 453.082 231.91 453.035 231.933C453.035 231.933 453.058 231.933 453.058 231.91C452.75 232.163 452.449 232.4 452.172 232.614C452.457 232.369 453.47 231.546 453.779 231.3V231.3ZM23.4793 514.384C24.4133 515.207 24.9753 515.698 24.9753 515.698C24.9753 515.698 24.3183 516.165 23.5031 516.941C23.5031 516.078 23.4951 515.231 23.4793 514.384V514.384ZM23.8513 527.832C24.1996 528.086 24.5321 528.331 24.9753 528.584C34.9884 534.307 24.9753 530.009 34.9884 534.307C45.0015 538.605 45.0015 538.597 45.0015 538.597C45.0015 538.597 43.5767 535.74 45.0015 530.009C46.4263 524.286 52.1651 534.299 46.4263 524.286C40.7034 514.265 43.5847 525.719 40.7034 514.265L37.838 502.804C37.838 502.804 34.9804 495.648 39.2707 495.648C43.5609 495.648 48.9117 511.392 48.9117 511.392C48.9117 511.392 56.4393 528.569 60.7374 531.426L65.0276 534.284C65.0276 534.284 70.7505 540.006 72.1673 545.729C73.5921 551.452 65.0276 552.885 72.1673 557.175C79.307 561.449 69.3019 552.885 79.307 561.449C89.3438 570.038 95.0509 568.589 99.349 571.463C103.647 574.328 105.072 562.89 109.362 571.463C113.652 580.035 100.79 571.463 113.652 580.035C126.515 588.647 133.671 592.937 133.671 592.937C133.671 592.937 135.095 584.349 143.707 592.937C152.272 601.502 162.285 602.935 162.285 602.935C162.285 602.935 163.718 607.249 170.874 612.956C178.037 618.679 170.874 610.098 178.037 618.679L185.193 627.243L198.055 635.832H203.778L208.076 642.987L219.522 657.275V667.311C219.522 667.311 212.359 657.275 212.359 667.311C212.359 677.325 213.791 668.736 212.359 677.325L210.934 685.897L219.522 697.367V717.385C219.522 717.385 228.095 727.398 232.385 730.24C236.659 733.097 225.229 723.1 236.659 733.097L248.105 743.118L263.849 757.43V763.153C263.849 763.153 273.846 755.997 278.136 763.153C282.427 770.316 288.15 777.464 288.15 777.464V783.187C288.15 783.187 293.88 771.741 296.738 783.187C299.603 794.617 296.738 800.339 296.738 800.339C296.738 800.339 305.342 807.495 306.759 811.785C308.192 816.075 303.901 820.358 306.759 824.664C309.617 828.954 313.914 847.564 313.914 847.564L325.344 870.439C325.344 870.439 322.503 879.004 325.344 883.294C328.21 887.584 332.508 896.173 332.508 896.173C332.508 896.173 322.495 904.745 332.508 914.774C342.529 924.795 336.798 914.774 342.529 924.795C348.252 934.816 352.542 944.829 352.542 944.829L371.144 966.272L383.302 975.407C182.612 922.119 32.74 742.861 23.8443 527.823L23.8513 527.832ZM507.323 991.506C469.827 991.506 433.32 987.239 398.239 979.118H401.144L386.849 950.512C386.849 950.512 389.706 941.939 385.416 937.649L381.126 933.359L376.851 926.195V916.198C376.851 916.198 382.574 909.034 376.851 906.177C371.128 903.311 371.128 911.9 371.128 903.311V894.723C371.128 894.723 378.284 889.016 381.142 884.726C384.007 880.436 379.709 890.433 384.007 880.436C388.281 870.422 391.162 857.552 391.162 857.552L401.176 848.979V830.378C401.176 830.378 399.727 826.103 401.176 820.341C402.6 814.618 401.176 806.046 401.176 806.046C401.176 806.046 405.45 803.204 409.764 800.323C414.038 797.465 425.484 787.46 425.484 787.46C425.484 787.46 418.329 783.185 425.484 778.887C432.648 774.597 436.938 770.299 435.497 764.576C434.072 758.853 436.946 773.18 434.072 758.853C431.215 744.542 429.782 745.99 429.782 735.969C429.782 725.933 424.059 734.521 429.782 725.933C435.505 717.368 444.078 700.911 444.078 700.911C444.078 700.911 434.065 690.209 429.782 688.761C425.492 687.336 421.194 684.463 414.054 681.581C406.899 678.74 386.889 671.584 386.889 671.584C386.889 671.584 376.876 667.294 372.593 665.861C368.295 664.428 353.992 644.394 353.992 644.394C353.992 644.394 352.559 644.394 339.673 640.104C326.81 635.813 323.952 634.381 319.654 630.106C315.364 625.816 303.934 615.795 303.934 615.795L301.077 608.655C301.077 608.655 296.778 612.93 283.9 611.513C271.037 610.08 259.592 600.059 259.592 600.059C259.592 600.059 252.436 600.059 246.705 602.917C240.982 605.774 230.985 612.938 230.985 612.938L220.972 615.795L202.37 614.371L189.492 607.231L182.352 591.479C182.352 591.479 180.919 584.339 176.629 581.458C172.355 578.617 160.901 570.028 160.901 570.028L166.624 552.859C166.624 552.859 160.901 545.704 155.194 548.585C149.471 551.427 140.899 561.44 140.899 561.44C140.899 561.44 136.608 564.298 132.31 562.873C128.02 561.44 120.857 558.582 113.709 551.427C106.553 544.287 105.121 537.131 105.121 532.841C105.121 528.551 113.709 509.957 113.709 509.957L138.017 492.781H152.313L168.056 485.625L183.777 505.667L196.655 521.387C196.655 521.387 212.375 511.374 208.813 507.1C205.228 502.786 199.505 494.213 199.505 494.213C199.505 494.213 206.66 482.768 208.813 478.485C210.966 474.195 213.816 472.778 219.539 464.198C225.262 455.609 228.112 451.319 230.969 447.029C233.834 442.731 245.264 422.713 245.264 422.713L256.718 414.108L266.731 401.246L273.871 394.106H285.317L305.359 384.085H318.221L306.776 369.797L299.62 361.193C306.776 354.03 326.786 349.763 326.786 349.763C326.786 349.763 346.82 338.31 345.395 342.6C343.97 346.89 328.218 366.932 328.218 366.932L339.648 375.505C339.648 375.505 352.535 378.362 355.392 374.08C358.257 369.79 359.682 359.769 359.682 359.769L355.392 341.65V321.125C355.392 313.986 352.534 295.4 348.236 298.25C343.962 301.115 339.632 285.395 339.632 285.395V265.353L323.912 279.648C323.912 279.648 312.482 278.215 313.899 273.925C315.324 269.635 322.487 265.337 322.487 265.337L306.759 252.45C306.759 252.45 289.591 241.02 286.725 245.295C283.868 249.585 279.57 261.023 279.57 261.023L272.414 276.767V286.788L266.691 301.083L249.515 318.252L240.926 335.405C240.926 335.405 238.085 313.962 238.085 309.68C238.085 305.39 219.483 288.237 219.483 288.237L215.193 271.06C215.193 271.06 220.916 259.615 220.916 255.332C220.916 251.058 228.071 242.47 233.794 236.747C239.517 231.024 253.813 219.57 258.103 216.728C262.393 213.871 272.398 208.14 272.398 208.14L269.557 232.448L288.134 229.591L285.277 216.728L301.021 208.14L309.593 185.24C309.593 185.24 318.182 165.221 322.472 168.063C326.746 170.928 336.767 183.815 336.767 183.815L321.023 215.264H308.168L303.878 228.142C303.878 228.142 311.034 229.575 316.757 233.865C322.48 238.156 332.477 249.586 332.477 249.586L349.654 236.731V225.285H362.516L371.105 206.683L368.239 193.805C368.239 193.805 368.239 189.515 369.672 183.808L371.105 178.077L365.382 167.803V142.323L356.794 126.619H329.644L285.277 105.143H273.831L254.145 95.2883C288.142 74.3519 324.935 57.531 363.79 45.4295C359.302 48.6036 356.801 51.4612 356.801 53.8515C356.801 63.9676 359.872 77.4081 363.6 83.6776C367.337 89.9705 373.922 95.7805 378.268 96.5562L383.991 95.1077C389.714 93.6987 401.159 79.3875 404.001 75.1131C406.867 70.8229 426.901 59.385 432.624 56.5117L435.204 55.2135C438.813 55.2135 442.407 55.0473 443.175 54.8652L444.061 55.0948L447.212 55.8467C444.204 55.5222 439.439 59.6067 436.565 64.997L426.893 72.2317L415.447 80.8201C412.297 89.0364 412.297 100.617 415.447 106.561L424.027 120.872C424.803 124.814 425.452 129.318 425.452 130.909V135.199C425.452 139.49 424.027 152.352 424.027 156.642C424.027 160.933 415.439 183.832 415.439 188.114C415.439 192.404 412.922 203.976 409.835 218.145L401.183 223.868C392.532 229.59 399.822 233.881 401.183 241.036C402.545 248.176 391.234 246.759 401.183 255.332C411.133 263.92 406.843 255.332 411.133 263.92C415.423 272.508 412.566 266.786 421.146 263.92L429.196 261.245C442.146 245.248 452.445 232.424 452.151 232.59C452.357 232.447 452.547 232.305 452.832 232.075C452.903 232.004 452.974 231.957 453.038 231.893C453.085 231.854 454.462 230.817 456.283 229.408L459.758 226.716C478.359 212.429 466.922 219.561 478.359 212.429C489.813 205.273 475.518 209.571 489.813 205.273L504.108 200.975C513.544 196.242 526.423 184.669 532.715 175.218L534.147 170.944C535.58 166.654 538.422 166.654 534.147 160.931C529.873 155.208 524.126 169.519 529.873 155.208C535.596 140.92 532.968 140.92 536.427 135.197C539.87 129.475 530.111 138.039 536.427 122.311C542.736 106.583 542.736 106.583 542.736 106.583C545.103 102.665 543.163 96.8705 538.438 93.7201L547.026 87.9972C555.614 82.2743 557.87 79.0526 560.633 75.1423C563.379 71.2004 562.414 64.7651 558.48 60.8469L565.619 56.5567C572.783 52.2664 571.342 59.612 575.64 48.0792C579.915 36.5147 575.64 46.5515 579.915 36.5147C581.324 33.2534 582.266 31.0451 582.899 29.5648C652.809 40.599 717.802 66.6413 774.462 104.271C772.697 106.693 770.021 109.645 766.158 112.337C757.855 118.06 768.723 129.514 766.158 135.237C763.57 140.96 766.158 149.524 766.158 149.524C766.158 149.524 785.892 165.252 792.39 168.11C795.413 169.44 799.506 174.229 803.859 179.801C803.345 180.545 803.044 180.981 803.044 180.981C803.044 180.981 801.77 182.413 792.39 186.703C783.01 190.994 766.158 199.566 766.158 199.566C766.158 199.566 748.705 205.297 747.272 199.566C745.839 193.843 732.977 190.994 732.977 190.994C732.977 190.994 727.254 185.271 720.114 182.405C712.95 179.54 704.37 172.384 704.37 172.384C704.37 172.384 691.507 168.094 685.768 173.817C680.046 179.54 662.893 183.854 660.044 193.851C657.178 203.864 652.88 213.893 651.455 219.592C650.007 225.315 632.854 246.766 627.139 252.474C621.416 258.197 614.276 269.651 618.551 275.374C622.849 281.097 634.279 295.408 638.585 292.551L642.875 289.685L662.909 303.981C662.909 303.981 679.381 268.71 678.297 268.473C677.197 268.219 671.862 248.176 678.819 243.903C685.785 239.613 690.075 218.146 694.373 222.435C698.671 226.726 688.65 258.191 688.65 258.191L712.967 268.465C712.967 268.465 730.12 260.114 722.98 268.465C715.84 276.792 702.962 285.388 701.529 289.671C700.096 293.961 678.305 318.277 678.305 318.277H660.067C660.067 318.277 644.323 312.554 634.31 318.277C624.297 324 604.255 344.018 604.255 344.018V364.052C604.255 364.052 589.968 355.464 587.102 364.052C584.237 372.641 587.102 383.311 587.102 383.311L592.825 395.508C592.825 395.508 590.031 400.907 579.266 402.498C568.517 404.097 565.635 393.894 562.794 402.585C559.928 411.26 562.794 424.131 562.794 424.131L561.519 440.492C561.519 440.492 568.517 418.249 567.084 440.492C565.651 462.736 577.105 444.149 565.651 462.736C554.221 481.322 565.651 467.026 554.221 481.322C542.776 495.617 542.775 501.474 534.187 513.561C525.583 525.688 522.931 538.55 517.834 542.113C512.736 545.706 518.633 548.572 517.834 554.287C517.034 560.01 517.834 577.162 517.834 577.162C517.834 577.162 528.464 598.63 531.33 602.92C534.187 607.233 535.62 611.524 541.351 618.663C547.058 625.819 547.058 625.819 547.058 625.819C547.058 625.819 559.937 621.529 564.235 625.819C568.533 630.109 568.525 630.109 568.525 630.109H588.559C592.833 630.109 595.714 632.967 599.989 630.109C604.263 627.228 615.717 622.954 615.717 622.954L632.894 631.352L647.189 637.249C651.479 648.671 644.324 662.974 648.614 668.698C652.904 674.421 662.925 688.74 667.223 688.74C671.498 688.74 678.321 694.463 678.321 694.463V721.606L671.513 737.334L670.089 745.946C670.089 745.946 667.231 760.234 670.089 768.83C672.93 777.403 674.521 797.428 679.453 801.704C684.384 805.994 687.226 820.305 687.226 820.305L698.679 844.638C698.679 844.638 724.404 836.05 733.008 833.192C741.58 830.335 748.736 823.156 754.459 808.86C760.182 794.572 760.752 778.845 766.19 774.553C771.612 770.263 778.768 763.1 784.49 755.944C790.213 748.788 803.076 731.636 804.509 725.889C805.941 720.182 801.651 684.419 801.651 684.419C801.651 684.419 798.794 674.406 804.509 668.691C810.232 662.968 828.825 642.95 831.682 637.242C834.54 631.511 853.15 608.636 854.566 604.338C855.999 600.048 858.841 580.005 854.566 582.862C850.276 585.752 833.115 594.316 833.115 594.316C833.115 594.316 820.236 575.707 825.951 577.139C831.674 578.588 854.574 573.831 867.445 564.767C880.308 555.704 897.476 535.679 897.476 535.679V513.547C897.476 513.547 890.321 508.497 886.03 507.072C881.756 505.639 868.878 504.206 868.878 504.206L857.424 494.185C857.424 494.185 828.818 475.6 838.822 477.017C848.836 478.441 887.439 494.185 887.439 494.185C887.439 494.185 911.772 495.61 916.062 494.185C920.352 492.753 944.668 510.04 948.958 513.547C953.248 517.085 964.678 534.238 970.401 542.098C976.123 549.982 987.577 564.761 987.577 564.761C987.577 564.761 987.649 565.062 987.767 565.584C958.979 805.223 754.512 991.507 507.315 991.507L507.323 991.506Z" fill="#9DD0FF"/>
</g>
</svg>
