<svg width="1125" height="521" viewBox="0 0 1125 521" fill="none" xmlns="http://www.w3.org/2000/svg">
<mask id="mask0_22_518" style="mask-type:alpha" maskUnits="userSpaceOnUse" x="0" y="0" width="1125" height="521">
<rect width="1124.26" height="521" fill="#C4C4C4"/>
</mask>
<g mask="url(#mask0_22_518)">
<g opacity="0.2">
<path d="M285.305 43.3269C285.305 40.5583 280.638 38.3275 274.934 38.3275C269.239 38.3275 260.561 35.0921 255.657 31.1686C250.737 27.2451 244.14 27.2451 240.999 31.1686C237.851 35.0842 239.148 38.3275 243.855 38.3275C248.561 38.3275 255.159 40.5583 258.513 43.3269C261.859 46.064 269.247 48.3182 274.935 48.3182C280.654 48.3103 285.305 46.048 285.305 43.3269H285.305Z" fill="#FFDE83"/>
<path d="M321.756 53.3102C318.212 50.5732 314.676 46.3886 313.893 44.0315L306.758 48.3031L299.599 52.5905C291.744 56.0078 278.875 64.3453 271.012 71.164H285.298H293.881H321.757C325.293 71.164 328.18 68.2846 328.18 64.7566C328.18 61.2128 325.293 56.0631 321.757 53.3104L321.756 53.3102Z" fill="#FFDE83"/>
<path d="M899.925 217.683C889.325 231.542 879.152 244.294 877.326 246.017C875.522 247.734 869.938 255.874 864.899 264.163L863.475 267.027L862.043 269.883C865.966 275.349 870.278 279.889 871.615 279.889C872.951 279.889 875.72 280.19 877.777 280.593L879.208 279.889C880.64 279.162 882.064 278.458 883.48 274.866C884.928 271.307 886.344 270.579 887.063 264.875C887.783 259.156 897.774 242.719 898.502 239.87L899.229 236.991C902.75 225.22 908.231 208.166 911.38 199.116L905.661 208.403L899.926 217.682L899.925 217.683Z" fill="white"/>
<path d="M562.938 -504.87C283.665 -504.87 56.4551 -277.66 56.4551 1.61301C56.4551 280.886 283.665 508.096 562.938 508.096C842.212 508.096 1069.42 280.886 1069.42 1.61301C1069.42 -277.66 842.212 -504.87 562.938 -504.87ZM831.661 -400.264C846.604 -390.234 860.953 -379.396 874.669 -367.809C872.794 -364.416 872.272 -361.789 874.06 -360.5C877.975 -357.636 869.772 -342.718 863.855 -333.091L849.933 -344.774C849.933 -344.774 837.063 -379.058 832.768 -383.37C830.063 -386.059 830.766 -394.436 831.66 -400.266L831.661 -400.264ZM725.567 -61.7586L734.316 -73.8297H745.564L768.433 -66.0619L767.009 -83.2194H777.016L797.021 -65.4845H832.759C832.759 -65.4845 828.472 -51.7681 825.608 -46.4919C822.752 -41.1761 804.171 -36.0504 804.171 -36.0504H778.431L765.576 -37.4821L749.859 -27.4913L734.315 -34.6264C734.315 -34.6264 715.559 -50.3441 714.12 -54.6473C712.696 -58.919 691.259 -61.7982 686.972 -63.2301C682.685 -64.6618 675.534 -67.5175 658.368 -63.2301C658.368 -63.2301 651.233 -57.5109 638.363 -54.6473C625.509 -51.7679 651.233 -71.8128 658.368 -73.8537C665.527 -75.8945 668.383 -88.9544 672.67 -98.9601C676.958 -108.967 695.531 -98.9601 695.531 -98.9601H706.977C706.977 -98.9601 719.831 -90.3932 724.135 -83.2423C728.406 -76.0915 721.279 -78.9549 718.415 -73.8687C715.56 -68.7269 725.566 -61.7579 725.566 -61.7579L725.567 -61.7586ZM788.463 -113.223C788.463 -113.223 798.469 -117.51 802.749 -122.557C807.021 -127.62 815.603 -122.557 815.603 -122.557L823.458 -141.803C823.458 -141.803 831.321 -127.517 832.761 -123.214C834.185 -118.926 849.926 -111.776 849.926 -111.776L841.344 -103.288L818.475 -103.375C818.475 -103.375 808.468 -103.209 797.022 -103.375L788.463 -113.223ZM839.911 -11.7421C839.911 -11.7421 847.062 -1.72775 849.925 7.60648C852.765 16.9565 869.931 32.5793 872.786 46.3901C875.642 60.2015 872.786 71.1503 872.786 71.1503C872.786 71.1503 859.916 55.4404 855.629 48.2896C851.341 41.1388 838.463 28.2844 832.76 23.9972C827.041 19.7256 825.609 -11.7407 825.609 -11.7407H839.911L839.911 -11.7421ZM509.445 -274.491L509.722 -274.729L512.071 -276.485C511.272 -275.852 510.552 -275.282 509.959 -274.839C510.963 -275.614 511.438 -276.018 509.706 -274.721C509.429 -274.483 509.073 -274.175 508.725 -273.882C508.915 -274.024 509.097 -274.167 509.286 -274.325C508.978 -274.072 508.749 -273.882 508.701 -273.858C508.701 -273.858 508.725 -273.858 508.725 -273.882C508.416 -273.629 508.116 -273.392 507.839 -273.178C508.124 -273.423 509.136 -274.246 509.445 -274.491ZM79.4271 8.40695C80.3606 9.22962 80.9222 9.72006 80.9222 9.72006C80.9222 9.72006 80.2656 10.1868 79.4509 10.962C79.4509 10.0998 79.443 9.25332 79.4271 8.40695ZM79.7989 21.8466C80.147 22.0998 80.4792 22.345 80.9222 22.5981C90.9287 28.3172 80.9222 24.022 90.9287 28.3172C100.935 32.6125 100.935 32.6046 100.935 32.6046C100.935 32.6046 99.5114 29.749 100.935 24.0219C102.359 18.3028 108.094 28.3093 102.359 18.3028C96.64 8.28833 99.5194 19.7345 96.64 8.2883L93.7764 -3.16568C93.7764 -3.16568 90.9207 -10.3166 95.2082 -10.3166C99.4956 -10.3166 104.843 5.41699 104.843 5.41699C104.843 5.41699 112.366 22.5825 116.661 25.438L120.948 28.2937C120.948 28.2937 126.667 34.0128 128.083 39.732C129.507 45.4511 120.948 46.8828 128.083 51.1702C135.218 55.4418 125.22 46.8828 135.218 55.4418C145.249 64.0245 150.952 62.5768 155.247 65.4483C159.542 68.3119 160.966 56.8814 165.254 65.4483C169.541 74.0153 156.687 65.4484 169.541 74.0153C182.395 82.6217 189.546 86.9091 189.546 86.9091C189.546 86.9091 190.97 78.3264 199.577 86.9091C208.136 95.4682 218.142 96.8999 218.142 96.8999C218.142 96.8999 219.574 101.211 226.725 106.914C233.884 112.633 226.725 104.059 233.884 112.633L241.035 121.192L253.889 129.775H259.608L263.903 136.926L275.342 151.204V161.234C275.342 161.234 268.183 151.204 268.183 161.234C268.183 171.241 269.614 162.658 268.183 171.241L266.759 179.808L275.342 191.27V211.275C275.342 211.275 283.909 221.282 288.196 224.122C292.468 226.977 281.045 216.987 292.468 226.977L303.906 236.992L319.639 251.294V257.013C319.639 257.013 329.63 249.862 333.918 257.013C338.205 264.172 343.924 271.315 343.924 271.315V277.034C343.924 277.034 349.651 265.595 352.507 277.034C355.37 288.456 352.507 294.175 352.507 294.175C352.507 294.175 361.105 301.326 362.521 305.614C363.953 309.901 359.666 314.181 362.521 318.484C365.377 322.771 369.672 341.369 369.672 341.369L381.095 364.229C381.095 364.229 378.255 372.788 381.095 377.076C383.958 381.363 388.253 389.946 388.253 389.946C388.253 389.946 378.247 398.513 388.253 408.535C398.268 418.55 392.541 408.535 398.268 418.55C403.987 428.564 408.274 438.571 408.274 438.571L426.864 460L439.014 469.128C238.456 415.876 88.6818 236.734 79.7919 21.8371L79.7989 21.8466ZM562.953 485.216C525.482 485.216 488.999 480.953 453.941 472.837H456.845L442.559 444.249C442.559 444.249 445.414 435.682 441.127 431.395L436.839 427.108L432.568 419.949V409.958C432.568 409.958 438.287 402.799 432.568 399.943C426.849 397.08 426.849 405.663 426.849 397.08V388.497C426.849 388.497 433.999 382.794 436.855 378.506C439.719 374.219 435.423 384.21 439.719 374.219C443.99 364.212 446.87 351.35 446.87 351.35L456.876 342.783V324.194C456.876 324.194 455.429 319.922 456.876 314.164C458.3 308.445 456.876 299.878 456.876 299.878C456.876 299.878 461.148 297.038 465.459 294.159C469.73 291.303 481.169 281.304 481.169 281.304C481.169 281.304 474.018 277.033 481.169 272.737C488.328 268.45 492.615 264.155 491.175 258.435C489.751 252.716 492.623 267.034 489.751 252.716C486.896 238.414 485.464 239.862 485.464 229.847C485.464 219.817 479.745 228.4 485.464 219.817C491.183 211.258 499.75 194.812 499.75 194.812C499.75 194.812 489.743 184.117 485.464 182.67C481.177 181.246 476.881 178.374 469.746 175.495C462.595 172.655 442.598 165.504 442.598 165.504C442.598 165.504 432.592 161.217 428.312 159.785C424.017 158.353 409.723 138.332 409.723 138.332C409.723 138.332 408.291 138.332 395.413 134.044C382.559 129.757 379.704 128.325 375.408 124.054C371.121 119.766 359.698 109.752 359.698 109.752L356.843 102.617C356.843 102.617 352.547 106.888 339.677 105.473C326.823 104.041 315.385 94.0263 315.385 94.0263C315.385 94.0263 308.234 94.0264 302.507 96.8821C296.788 99.7378 286.797 106.897 286.797 106.897L276.79 109.752L258.201 108.328L245.331 101.193L238.196 85.4519C238.196 85.4519 236.764 78.3168 232.477 75.4374C228.205 72.5977 216.759 64.015 216.759 64.015L222.478 46.8575C222.478 46.8575 216.759 39.7066 211.056 42.5858C205.337 45.4256 196.77 55.4323 196.77 55.4323C196.77 55.4323 192.482 58.288 188.187 56.864C183.9 55.4323 176.741 52.5766 169.598 45.4258C162.447 38.2908 161.015 31.1397 161.015 26.8523C161.015 22.5649 169.598 3.98352 169.598 3.98352L193.89 -13.1819H208.176L223.91 -20.3328L239.62 -0.303894L252.49 15.406C252.49 15.406 268.2 5.39943 264.64 1.12781C261.057 -3.1833 255.337 -11.7502 255.337 -11.7502C255.337 -11.7502 262.488 -23.1885 264.64 -27.468C266.792 -31.7555 269.639 -33.1713 275.358 -41.7462C281.078 -50.3289 283.925 -54.6163 286.781 -58.9037C289.644 -63.199 301.067 -83.2042 301.067 -83.2042L312.513 -91.8028L322.52 -104.657L329.655 -111.792H341.093L361.122 -121.807H373.976L362.538 -136.085L355.387 -144.683C362.538 -151.842 382.535 -156.106 382.535 -156.106C382.535 -156.106 402.556 -167.552 401.132 -163.265C399.708 -158.977 383.966 -138.948 383.966 -138.948L395.389 -130.381C395.389 -130.381 408.267 -127.525 411.122 -131.805C413.986 -136.092 415.41 -146.107 415.41 -146.107L411.122 -164.213V-184.725C411.122 -191.86 408.267 -210.433 403.972 -207.586C399.7 -204.722 395.373 -220.432 395.373 -220.432V-240.461L379.663 -226.175C379.663 -226.175 368.241 -227.607 369.657 -231.894C371.081 -236.182 378.239 -240.477 378.239 -240.477L362.522 -253.355C362.522 -253.355 345.364 -264.777 342.501 -260.506C339.645 -256.218 335.35 -244.788 335.35 -244.788L328.199 -229.054V-219.04L322.48 -204.754L305.314 -187.596L296.732 -170.455C296.732 -170.455 293.892 -191.884 293.892 -196.163C293.892 -200.45 275.303 -217.592 275.303 -217.592L271.015 -234.757C271.015 -234.757 276.734 -246.195 276.734 -250.475C276.734 -254.746 283.885 -263.329 289.605 -269.048C295.324 -274.767 309.61 -286.214 313.897 -289.054C318.184 -291.909 328.183 -297.636 328.183 -297.636L325.343 -273.344L343.909 -276.2L341.053 -289.054L356.787 -297.637L365.354 -320.522C365.354 -320.522 373.936 -340.527 378.224 -337.687C382.495 -334.823 392.51 -321.946 392.51 -321.946L376.776 -290.517H363.93L359.642 -277.647C359.642 -277.647 366.793 -276.215 372.513 -271.928C378.232 -267.64 388.223 -256.218 388.223 -256.218L405.388 -269.064V-280.503H418.242L426.825 -299.092L423.961 -311.962C423.961 -311.962 423.961 -316.249 425.393 -321.953L426.825 -327.68L421.106 -337.947V-363.41L412.523 -379.104H385.392L341.053 -400.566H329.615L309.942 -410.414C343.916 -431.337 380.685 -448.147 419.515 -460.24C415.03 -457.068 412.53 -454.212 412.53 -451.824C412.53 -441.714 415.6 -428.283 419.325 -422.017C423.059 -415.728 429.641 -409.922 433.983 -409.147L439.702 -410.595C445.422 -412.003 456.86 -426.304 459.7 -430.576C462.563 -434.863 482.585 -446.294 488.303 -449.165L490.882 -450.463C494.489 -450.463 498.081 -450.629 498.848 -450.811L499.734 -450.581L502.882 -449.83C499.876 -450.154 495.114 -446.072 492.243 -440.685L482.576 -433.455L471.138 -424.873C467.99 -416.662 467.99 -405.089 471.138 -399.149L479.713 -384.847C480.488 -380.907 481.137 -376.406 481.137 -374.817V-370.529C481.137 -366.242 479.713 -353.388 479.713 -349.1C479.713 -344.813 471.13 -321.928 471.13 -317.649C471.13 -313.362 468.615 -301.797 465.53 -287.638L456.884 -281.919C448.238 -276.2 455.523 -271.912 456.884 -264.761C458.244 -257.626 446.941 -259.042 456.884 -250.475C466.827 -241.893 462.54 -250.475 466.827 -241.893C471.115 -233.31 468.259 -239.029 476.834 -241.893L484.879 -244.566C497.82 -260.553 508.112 -273.368 507.818 -273.202C508.024 -273.345 508.214 -273.487 508.499 -273.717C508.57 -273.788 508.641 -273.835 508.704 -273.899C508.752 -273.938 510.128 -274.974 511.948 -276.382L515.42 -279.072C534.009 -293.35 522.579 -286.223 534.009 -293.35C545.455 -300.501 531.17 -296.206 545.456 -300.501L559.742 -304.796C569.171 -309.527 582.041 -321.092 588.329 -330.536L589.761 -334.808C591.193 -339.096 594.032 -339.096 589.761 -344.815C585.489 -350.534 579.746 -336.232 585.489 -350.534C591.208 -364.812 588.582 -364.812 592.039 -370.531C595.48 -376.25 585.727 -367.691 592.039 -383.409C598.344 -399.127 598.344 -399.127 598.344 -399.127C600.709 -403.042 598.771 -408.833 594.048 -411.981L602.631 -417.7C611.214 -423.419 613.468 -426.639 616.229 -430.547C618.974 -434.486 618.009 -440.917 614.077 -444.833L621.212 -449.12C628.371 -453.408 626.931 -446.067 631.227 -457.592C635.498 -469.149 631.227 -459.119 635.498 -469.149C636.906 -472.408 637.848 -474.615 638.48 -476.094C708.344 -465.067 773.296 -439.042 829.918 -401.437C828.154 -399.017 825.48 -396.066 821.62 -393.377C813.322 -387.657 824.183 -376.211 821.62 -370.492C819.033 -364.772 821.62 -356.213 821.62 -356.213C821.62 -356.213 841.34 -340.496 847.834 -337.64C850.856 -336.311 854.945 -331.525 859.296 -325.956C858.782 -325.213 858.481 -324.778 858.481 -324.778C858.481 -324.778 857.208 -323.346 847.834 -319.059C838.46 -314.771 821.62 -306.204 821.62 -306.204C821.62 -306.204 804.178 -300.477 802.746 -306.204C801.314 -311.923 788.46 -314.771 788.46 -314.771C788.46 -314.771 782.741 -320.49 775.605 -323.354C768.447 -326.218 759.872 -333.368 759.872 -333.368C759.872 -333.368 747.018 -337.656 741.283 -331.937C735.563 -326.218 718.422 -321.906 715.575 -311.916C712.711 -301.909 708.416 -291.887 706.992 -286.192C705.544 -280.473 688.403 -259.036 682.692 -253.331C676.972 -247.612 669.837 -236.166 674.109 -230.446C678.404 -224.727 689.826 -210.425 694.13 -213.281L698.417 -216.145L718.438 -201.858C718.438 -201.858 734.899 -237.106 733.816 -237.343C732.716 -237.596 727.385 -257.626 734.338 -261.897C741.299 -266.184 745.586 -287.637 749.882 -283.35C754.177 -279.063 744.163 -247.618 744.163 -247.618L768.463 -237.351C768.463 -237.351 785.605 -245.696 778.47 -237.351C771.335 -229.029 758.465 -220.438 757.033 -216.159C755.601 -211.871 733.824 -187.571 733.824 -187.571H715.598C715.598 -187.571 699.865 -193.29 689.858 -187.571C679.851 -181.852 659.823 -161.847 659.823 -161.847V-141.826C659.823 -141.826 645.544 -150.409 642.681 -141.826C639.817 -133.243 642.681 -122.58 642.681 -122.58L648.4 -110.391C648.4 -110.391 645.608 -104.996 634.85 -103.406C624.108 -101.808 621.228 -112.004 618.388 -103.319C615.525 -94.6492 618.388 -81.7865 618.388 -81.7865L617.115 -65.4359C617.115 -65.4359 624.107 -87.6648 622.676 -65.4359C621.244 -43.2071 632.69 -61.7814 621.244 -43.2071C609.822 -24.6336 621.244 -38.9197 609.822 -24.6336C598.383 -10.3476 598.383 -4.49395 589.801 7.58481C581.202 19.7035 578.552 32.5576 573.458 36.1176C568.364 39.7089 574.257 42.5725 573.458 48.2837C572.659 54.0028 573.458 71.1444 573.458 71.1444C573.458 71.1444 584.081 92.5977 586.945 96.8847C589.801 101.196 591.232 105.483 596.959 112.618C602.663 119.769 602.663 119.769 602.663 119.769C602.663 119.769 615.533 115.482 619.828 119.769C624.124 124.056 624.116 124.056 624.116 124.056H644.137C648.408 124.056 651.288 126.912 655.559 124.056C659.831 121.177 671.277 116.906 671.277 116.906L688.442 125.298L702.728 131.192C707.016 142.606 699.865 156.9 704.152 162.62C708.44 168.339 718.454 182.649 722.749 182.649C727.021 182.649 733.84 188.368 733.84 188.368V215.494L727.037 231.212L725.613 239.818C725.613 239.818 722.757 254.096 725.613 262.687C728.453 271.254 730.043 291.266 734.971 295.539C739.899 299.826 742.739 314.128 742.739 314.128L754.185 338.445C754.185 338.445 779.893 329.862 788.491 327.007C797.058 324.151 804.209 316.976 809.928 302.69C815.647 288.412 816.217 272.695 821.651 268.406C827.07 264.119 834.221 256.96 839.94 249.809C845.659 242.658 858.513 225.516 859.945 219.773C861.377 214.07 857.089 178.331 857.089 178.331C857.089 178.331 854.234 168.324 859.945 162.613C865.664 156.894 884.246 136.889 887.101 131.185C889.957 125.458 908.554 102.597 909.97 98.302C911.401 94.0146 914.241 73.9853 909.97 76.8406C905.682 79.7279 888.533 88.2867 888.533 88.2867C888.533 88.2867 875.662 69.6896 881.374 71.1213C887.093 72.5689 909.977 67.8148 922.84 58.7574C935.695 49.7 952.852 29.688 952.852 29.688V7.5704C952.852 7.5704 945.701 2.52363 941.413 1.09982C937.142 -0.331942 924.272 -1.76376 924.272 -1.76376L912.826 -11.7782C912.826 -11.7782 884.238 -30.3517 894.236 -28.9358C904.243 -27.5119 942.821 -11.7782 942.821 -11.7782C942.821 -11.7782 967.138 -10.3544 971.425 -11.7782C975.712 -13.21 1000.01 4.06607 1004.3 7.5704C1008.59 11.1063 1020.01 28.2482 1025.73 36.1033C1031.45 43.9819 1042.89 58.7514 1042.89 58.7514C1042.89 58.7514 1042.97 59.0519 1043.08 59.574C1014.31 299.055 809.981 485.217 562.946 485.217L562.953 485.216Z" fill="white"/>
</g>
</g>
</svg>
