<svg width="29" height="28" viewBox="0 0 29 28" fill="none" xmlns="http://www.w3.org/2000/svg">
<path d="M20.6335 0.265625H8.36683C6.36581 0.274441 4.44975 1.07553 3.03792 2.4936C1.6261 3.91167 0.833477 5.83125 0.833496 7.83229V20.0656C0.842267 22.0609 1.63877 23.9719 3.04965 25.3828C4.46053 26.7937 6.37157 27.5902 8.36683 27.599H20.6002C22.5954 27.5902 24.5065 26.7937 25.9173 25.3828C27.3282 23.9719 28.1247 22.0609 28.1335 20.0656V7.83229C28.1336 5.83698 27.3455 3.92241 25.9409 2.50528C24.5363 1.08816 22.6287 0.283205 20.6335 0.265625ZM25.7668 20.0656C25.7668 21.4271 25.226 22.7328 24.2633 23.6954C23.3006 24.6581 21.9949 25.199 20.6335 25.199H8.36683C7.00538 25.199 5.6997 24.6581 4.73701 23.6954C3.77433 22.7328 3.2335 21.4271 3.2335 20.0656V7.83229C3.2335 6.47085 3.77433 5.16516 4.73701 4.20248C5.6997 3.23979 7.00538 2.69896 8.36683 2.69896H20.6002C21.9616 2.69896 23.2673 3.23979 24.23 4.20248C25.1927 5.16516 25.7335 6.47085 25.7335 7.83229V20.0656H25.7668Z" fill="black"/>
<path d="M14.502 6.90112C13.1138 6.90119 11.7567 7.31206 10.6015 8.08198C9.44638 8.85191 8.54492 9.94645 8.01068 11.2277C7.47644 12.509 7.33332 13.9198 7.59934 15.2823C7.86537 16.6447 8.52864 17.898 9.50561 18.8843C10.4826 19.8705 11.7296 20.5456 13.0895 20.8244C14.4494 21.1033 15.8614 20.9735 17.1477 20.4513C18.434 19.9292 19.537 19.0381 20.3177 17.8903C21.0985 16.7425 21.5222 15.3893 21.5353 14.0011C21.5397 13.0731 21.3613 12.1533 21.0102 11.2943C20.6591 10.4352 20.1423 9.65375 19.4892 8.99445C18.8361 8.33515 18.0595 7.81095 17.2038 7.45178C16.3481 7.0926 15.43 6.90549 14.502 6.90112ZM14.502 18.5678C13.5828 18.5677 12.6844 18.2942 11.9211 17.7821C11.1578 17.2699 10.564 16.5423 10.2154 15.6918C9.86672 14.8413 9.77894 13.9063 9.96319 13.0057C10.1474 12.1052 10.5954 11.2798 11.2501 10.6345C11.9047 9.98929 12.7365 9.55335 13.6397 9.38217C14.5428 9.211 15.4764 9.31231 16.3218 9.67324C17.1672 10.0342 17.8861 10.6384 18.3871 11.4091C18.8881 12.1797 19.1486 13.082 19.1353 14.0011C19.1178 15.2184 18.622 16.3798 17.7549 17.2344C16.8879 18.0889 15.7194 18.5679 14.502 18.5678Z" fill="black"/>
<path d="M21.8325 4.86719C21.4248 4.86759 21.0298 5.00899 20.7145 5.2674C20.3992 5.52582 20.1829 5.88534 20.1024 6.28501C20.0219 6.68468 20.0821 7.09989 20.2728 7.46023C20.4635 7.82057 20.773 8.10387 21.1487 8.26207C21.5245 8.42028 21.9434 8.44367 22.3344 8.32826C22.7254 8.21285 23.0645 7.96576 23.2941 7.62888C23.5237 7.292 23.6298 6.88607 23.5942 6.47993C23.5587 6.07378 23.3838 5.69243 23.0992 5.40052C22.7641 5.0622 22.3087 4.87043 21.8325 4.86719Z" fill="black"/>
</svg>
