<svg width="28" height="22" viewBox="0 0 28 22" fill="none" xmlns="http://www.w3.org/2000/svg">
<path d="M27.3366 2.9993C26.3385 3.42895 25.2828 3.70972 24.2032 3.83264C25.2811 3.19024 26.0961 2.18624 26.5032 0.999303C25.4684 1.60001 24.3425 2.02785 23.1699 2.26597C22.6547 1.73584 22.0378 1.31502 21.3563 1.02866C20.6748 0.742298 19.9425 0.59627 19.2032 0.599303C17.7855 0.581447 16.4184 1.1253 15.4004 2.11209C14.3824 3.09889 13.7962 4.44843 13.7699 5.86597C13.7227 6.26458 13.7227 6.66736 13.7699 7.06597C11.6228 6.9543 9.52206 6.39906 7.60017 5.43525C5.67828 4.47143 3.97689 3.11995 2.60322 1.46597C2.12526 2.26133 1.87183 3.17138 1.86989 4.0993C1.86989 4.97494 2.0896 5.83658 2.5089 6.6053C2.9282 7.37401 3.53369 8.02523 4.26989 8.4993C3.40692 8.47257 2.56217 8.24426 1.80322 7.83264C1.815 9.06772 2.25778 10.2599 3.05505 11.2032C3.85233 12.1466 4.95405 12.7819 6.16989 12.9993C5.70277 13.1277 5.22097 13.1949 4.73656 13.1993H3.70322C4.06289 14.2607 4.74385 15.1838 5.65169 15.8408C6.55954 16.4978 7.6493 16.8561 8.76989 16.866C6.85256 18.325 4.51255 19.1206 2.10322 19.1326H0.803223C3.30408 20.6874 6.1918 21.5075 9.13656 21.4993C11.139 21.5436 13.1302 21.189 14.9943 20.4562C16.8584 19.7235 18.5581 18.6272 19.9944 17.2312C21.4307 15.8353 22.5749 14.1675 23.3605 12.325C24.146 10.4825 24.5571 8.5022 24.5699 6.4993V5.83264C25.6584 5.0662 26.5963 4.10572 27.3366 2.9993Z" fill="black"/>
</svg>
